<?xml version="1.0" encoding="utf-8"?>
<!-- Generator: Adobe Illustrator 19.0.0, SVG Export Plug-In . SVG Version: 6.00 Build 0)  -->
<svg version="1.1" id="Layer_1" xmlns="http://www.w3.org/2000/svg" xmlns:xlink="http://www.w3.org/1999/xlink" x="0px" y="0px"
	 viewBox="0 0 841.9 595.3" style="enable-background:new 0 0 841.9 595.3;" xml:space="preserve">
<style type="text/css">
	.st0{fill:#F9BD15;}
	.st1{fill:#FFFFFF;}
	.st2{font-family:'FranklinGothic-Heavy';}
	.st3{font-size:29.1427px;}
	.st4{font-family:'FuturaPT-Light';}
	.st5{font-size:48.9976px;}
	.st6{letter-spacing:30;}
	.st7{font-family:'FuturaPT-Medium';}
	.st8{font-size:21.3847px;}
	.st9{fill:#F57F40;stroke:#F57F3F;stroke-miterlimit:10;}
	.st10{fill:#FFFFFF;stroke:#F57F3F;stroke-miterlimit:10;}
</style>
<g id="XMLID_2_">
	<path id="XMLID_23_" class="st0" d="M247.2,343.7c3.8,7.3,8.4,14,13.7,20.2c-2.4,0.3-4.9,0.4-7.4,0.4c-37.8,0-68.5-30.7-68.5-68.5
		c0-29.5,18.6-54.6,44.7-64.2c7.4-2.7,15.4-4.2,23.8-4.2c2.5,0,4.9,0.1,7.4,0.4c-5.3,6.1-9.9,12.9-13.7,20.2
		c-2.1,0.3-4.3,0.7-6.3,1.3c-20.6,5.5-35.7,24.3-35.7,46.7C205.1,320.4,223.5,340.6,247.2,343.7z"/>
	<path id="XMLID_17_" class="st0" d="M276.7,378.8c6.8,5.1,14.2,9.5,22.1,12.8c-13.7,6.5-29.1,10.2-45.3,10.2
		c-58.5,0-106-47.4-106-106c0-47.9,31.8-88.5,75.5-101.5c9.6-2.9,19.9-4.4,30.4-4.4c16.2,0,31.6,3.6,45.3,10.2
		c-7.9,3.4-15.3,7.7-22.1,12.8c-7.4-2.1-15.2-3.2-23.2-3.2c-10.3,0-20.1,1.8-29.2,5.1c-33.2,12-56.9,43.7-56.9,81.1
		c0,47.6,38.6,86.1,86.1,86.1C261.5,381.9,269.3,380.8,276.7,378.8z"/>
	<path id="XMLID_56_" class="st1" d="M297.5,348.3c-5,4.2-10.7,7.7-16.8,10.4c-5.2-4.9-9.8-10.4-13.7-16.4
		c6.2-1.8,11.9-4.8,16.8-8.8C287.6,339,292.2,344.1,297.5,348.3z"/>
	<path id="XMLID_69_" class="st1" d="M322,295.8c0,13.7-4,26.5-11,37.2c-5.8-4.4-10.5-10.2-13.7-16.8c2.9-6.2,4.5-13.1,4.5-20.3
		c0-7.1-1.5-13.8-4.2-19.8c0.4,0,0.8,0,1.2,0c6.7,0,13.2-0.9,19.4-2.5C320.6,280.5,322,288,322,295.8z"/>
	<path id="XMLID_38_" class="st1" d="M313.3,357.8c6.9,2.9,14.3,4.7,22.1,5.2c-5,6.1-10.6,11.6-16.8,16.4c-7.9-2-15.3-5-22.1-9
		C302.7,366.9,308.3,362.6,313.3,357.8z"/>
	<path id="XMLID_39_" class="st1" d="M359.5,295.8c0,16.5-3.8,32.1-10.5,46c-3,0.6-6.2,0.9-9.4,0.9c-4.4,0-8.7-0.6-12.8-1.8
		c8.1-13.1,12.8-28.6,12.8-45.1c0-10.1-1.7-19.8-4.9-28.8c6.1-3.3,11.7-7.3,16.6-12C356.5,267.5,359.5,281.3,359.5,295.8z"/>
	<circle id="XMLID_6_" class="st1" cx="295.2" cy="255" r="10.6"/>
	<circle id="XMLID_8_" class="st1" cx="322" cy="227.3" r="10.6"/>
</g>
<text id="XMLID_3_" transform="matrix(1 0 0 1 222.9019 305.7754)" class="st1 st2 st3">MBH</text>
<g id="XMLID_4_">
	<path id="XMLID_16_" class="st1" d="M403,233h-2.2l3.7-33.8l14.2,30.2l14.2-30.2l3.7,33.8h-2.2l-2.9-26.3
		c-8.5,18.3-12.8,27.4-12.8,27.4l-12.8-27.4L403,233z"/>
	<path id="XMLID_19_" class="st1" d="M460,202.4v1.7c-0.8-1-1.8-1.7-3-2.3c-1.1-0.5-2.4-0.8-3.6-0.8c-2.5,0-4.6,0.9-6.2,2.6
		c-1.7,1.7-2.5,3.9-2.5,6.4c0,1.4,0.3,2.7,0.8,3.8c0.5,1.2,1.2,2.1,2.1,2.8c0.9,0.7,1.8,1.3,2.8,1.6c1,0.4,2,0.6,3,0.6
		c1.1,0,2.2-0.2,3.4-0.7c1.2-0.5,2.2-1.2,3.2-2.2v1.7c-1.8,1.6-4,2.4-6.5,2.4c-2.9,0-5.3-1-7.3-3c-2-2-2.9-4.3-2.9-7.1
		c0-2.8,1-5.2,3-7.2c2-2,4.4-2.9,7.2-2.9C456,199.9,458.2,200.7,460,202.4z"/>
	<path id="XMLID_21_" class="st1" d="M471.4,200.3v15.4l15.4-15.4h2.8L473.9,216l16.8,17.1h-2.9l-15.4-15.6l-0.9,0.8V233h-2.2v-32.7
		H471.4z"/>
	<path id="XMLID_24_" class="st1" d="M495.7,200.3h2.2V233h-2.2V200.3z"/>
	<path id="XMLID_26_" class="st1" d="M508.9,233h-2.2v-33l27.4,28.7v-28.4h2.2v33.5l-27.4-28.7V233z"/>
	<path id="XMLID_28_" class="st1" d="M547.3,233h-2.2v-33l27.4,28.7v-28.4h2.2v33.5l-27.4-28.7V233z"/>
	<path id="XMLID_30_" class="st1" d="M599.2,200.3v2h-13.5v11.9h13.2v2h-13.2v14.9h13.5v2h-15.7v-32.7H599.2z"/>
	<path id="XMLID_32_" class="st1" d="M613.3,233v-14l-10.7-18.7h2.5l9.4,16.5l9.6-16.5h2.5l-11,18.7v14H613.3z"/>
</g>
<text id="XMLID_5_" transform="matrix(1 0 0 1 396.7419 294.7581)" class="st1 st4 st5">BANCROFT</text>
<text id="XMLID_7_" transform="matrix(1 0 0 1 397.7424 358.5062)"><tspan x="0" y="0" class="st1 st4 st5">&amp; HUGHES</tspan><tspan x="224.8" y="0" class="st1 st4 st5 st6">	</tspan></text>
<text id="XMLID_9_" transform="matrix(1 0 0 1 400.7421 398.1465)" class="st1 st7 st8">COUNCEL &amp; ATTORNEYS</text>
<line id="XMLID_13_" class="st9" x1="400.7" y1="247.3" x2="624.6" y2="247.3"/>
<line id="XMLID_15_" class="st10" x1="400.7" y1="311" x2="624.6" y2="311"/>
</svg>
